<svg
  width="250"
  height="150"
  viewBox="0 0 250 150"
  xmlns="http://www.w3.org/2000/svg"
  fill="none"
  stroke="#333"
  stroke-width="2"
  stroke-linecap="round"
  stroke-linejoin="round"
>
  <!-- Elefante grande 1 -->
  <circle cx="50" cy="80" r="25" />
  <circle cx="35" cy="65" r="10" />
  <path d="M25 80 Q15 85 25 90" />
  <line x1="30" y1="100" x2="25" y2="120" />
  <line x1="55" y1="100" x2="60" y2="120" />
  
  <!-- Elefante grande 2 -->
  <circle cx="120" cy="80" r="25" />
  <circle cx="105" cy="65" r="10" />
  <path d="M95 80 Q85 85 95 90" />
  <line x1="100" y1="100" x2="95" y2="120" />
  <line x1="125" y1="100" x2="130" y2="120" />
  
  <!-- Elefante pequeño 1 -->
  <circle cx="85" cy="105" r="15" />
  <circle cx="75" cy="95" r="6" />
  <path d="M70 105 Q65 108 70 110" />
  <line x1="75" y1="112" x2="72" y2="125" />
  <line x1="95" y1="112" x2="98" y2="125" />
  
  <!-- Elefante pequeño 2 -->
  <circle cx="170" cy="105" r="15" />
  <circle cx="160" cy="95" r="6" />
  <path d="M155 105 Q150 108 155 110" />
  <line x1="160" y1="112" x2="157" y2="125" />
  <line x1="180" y1="112" x2="183" y2="125" />
</svg>
