<svg
  width="200"
  height="100"
  viewBox="0 0 200 100"
  xmlns="http://www.w3.org/2000/svg"
  fill="none"
  stroke="black"
  stroke-width="2"
  stroke-linecap="round"
  stroke-linejoin="round"
>
  <!-- Elefante grande 1 -->
  <circle cx="50" cy="50" r="20" />
  <circle cx="38" cy="40" r="8" />
  <path d="M30 50 Q20 55 30 60" />
  <line x1="35" y1="65" x2="30" y2="80" />
  <line x1="55" y1="65" x2="60" y2="80" />
  
  <!-- Elefante grande 2 -->
  <circle cx="110" cy="50" r="20" />
  <circle cx="98" cy="40" r="8" />
  <path d="M90 50 Q80 55 90 60" />
  <line x1="95" y1="65" x2="90" y2="80" />
  <line x1="115" y1="65" x2="120" y2="80" />
  
  <!-- Elefante pequeño 1 -->
  <circle cx="80" cy="70" r="10" />
  <circle cx="73" cy="65" r="4" />
  <path d="M70 70 Q65 73 70 75" />
  <line x1="73" y1="77" x2="70" y2="85" />
  <line x1="87" y1="77" x2="90" y2="85" />
  
  <!-- Elefante pequeño 2 -->
  <circle cx="140" cy="70" r="10" />
  <circle cx="133" cy="65" r="4" />
  <path d="M130 70 Q125 73 130 75" />
  <line x1="133" y1="77" x2="130" y2="85" />
  <line x1="147" y1="77" x2="150" y2="85" />
</svg>
